<svg width="495" height="178" viewBox="0 0 495 178" fill="none" xmlns="http://www.w3.org/2000/svg">
<path d="M68.53 91.63C68.53 100.503 65.12 107.983 58.3 114.07C51.5533 120.157 43.2667 123.2 33.44 123.2C29.8467 123.2 26.18 122.65 22.44 121.55C18.7733 120.45 15.1433 118.8 11.55 116.6C10.5967 108.167 9.86333 99.44 9.35 90.42C8.91 81.4 8.69 71.8667 8.69 61.82C8.69 57.42 8.69 54.12 8.69 51.92C8.76333 49.72 8.83667 47.6667 8.91 45.76C13.09 43.7067 17.4533 42.13 22 41.03C26.5467 39.93 31.0567 39.38 35.53 39.38C44.4767 39.38 51.2967 40.9567 55.99 44.11C60.6833 47.19 63.03 51.6633 63.03 57.53C63.03 61.1233 62.2233 64.3867 60.61 67.32C59.07 70.18 56.76 72.6733 53.68 74.8C58.3733 76.1933 62.0033 78.3933 64.57 81.4C67.21 84.3333 68.53 87.7433 68.53 91.63ZM41.58 60.61C41.58 57.6767 40.7733 55.4767 39.16 54.01C37.5467 52.5433 35.1633 51.81 32.01 51.81H31.68C31.3133 55.9167 30.9833 59.84 30.69 63.58C30.47 67.2467 30.2867 70.7667 30.14 74.14C33.88 73.3333 36.7033 71.7567 38.61 69.41C40.59 67.0633 41.58 64.13 41.58 60.61ZM29.81 108.46C30.8367 108.973 31.79 109.377 32.67 109.67C33.55 109.89 34.43 110 35.31 110C38.2433 110 40.81 108.57 43.01 105.71C45.21 102.85 46.31 99.6233 46.31 96.03C46.31 93.0233 45.43 90.75 43.67 89.21C41.9833 87.5967 39.49 86.79 36.19 86.79C35.2367 86.79 34.2467 86.9 33.22 87.12C32.1933 87.34 31.0567 87.7067 29.81 88.22C29.7367 89.2467 29.7 90.3467 29.7 91.52C29.7 92.62 29.7 94.3433 29.7 96.69C29.7 99.99 29.7 102.447 29.7 104.06C29.7 105.673 29.7367 107.14 29.81 108.46ZM132.225 122.1C130.098 122.76 123.278 123.53 111.765 124.41C100.325 125.29 90.7552 125.73 83.0552 125.73C81.2218 114.07 79.5352 100.467 77.9952 84.92C76.5285 69.3733 75.7218 56.43 75.5752 46.09C86.8685 43.9633 96.6585 42.46 104.945 41.58C113.305 40.6267 121.482 40.15 129.475 40.15C129.475 42.8633 129.292 45.76 128.925 48.84C128.632 51.8467 128.118 55 127.385 58.3C123.278 58.3 119.025 58.3733 114.625 58.52C110.225 58.6667 105.642 58.8867 100.875 59.18C100.728 60.7933 100.618 62.6633 100.545 64.79C100.472 66.8433 100.398 69.96 100.325 74.14C104.065 73.04 107.805 72.2333 111.545 71.72C115.285 71.2067 119.098 70.95 122.985 70.95C123.572 73.5167 124.012 76.1567 124.305 78.87C124.598 81.5833 124.745 84.7733 124.745 88.44C120.565 88.44 116.422 88.5867 112.315 88.88C108.208 89.1 104.212 89.43 100.325 89.87C100.398 93.17 100.508 96.3967 100.655 99.55C100.802 102.703 101.022 105.71 101.315 108.57C103.442 108.57 107.915 108.167 114.735 107.36C121.555 106.48 126.688 105.71 130.135 105.05C130.722 106.59 131.198 109.12 131.565 112.64C132.005 116.087 132.225 119.24 132.225 122.1ZM195.926 122.1C193.8 122.76 186.98 123.53 175.466 124.41C164.026 125.29 154.456 125.73 146.756 125.73C144.923 114.07 143.236 100.467 141.696 84.92C140.23 69.3733 139.423 56.43 139.276 46.09C150.57 43.9633 160.36 42.46 168.646 41.58C177.006 40.6267 185.183 40.15 193.176 40.15C193.176 42.8633 192.993 45.76 192.626 48.84C192.333 51.8467 191.82 55 191.086 58.3C186.98 58.3 182.726 58.3733 178.326 58.52C173.926 58.6667 169.343 58.8867 164.576 59.18C164.43 60.7933 164.32 62.6633 164.246 64.79C164.173 66.8433 164.1 69.96 164.026 74.14C167.766 73.04 171.506 72.2333 175.246 71.72C178.986 71.2067 182.8 70.95 186.686 70.95C187.273 73.5167 187.713 76.1567 188.006 78.87C188.3 81.5833 188.446 84.7733 188.446 88.44C184.266 88.44 180.123 88.5867 176.016 88.88C171.91 89.1 167.913 89.43 164.026 89.87C164.1 93.17 164.21 96.3967 164.356 99.55C164.503 102.703 164.723 105.71 165.016 108.57C167.143 108.57 171.616 108.167 178.436 107.36C185.256 106.48 190.39 105.71 193.836 105.05C194.423 106.59 194.9 109.12 195.266 112.64C195.706 116.087 195.926 119.24 195.926 122.1ZM287.708 122.54C283.674 124.08 279.934 125.143 276.488 125.73C273.114 126.317 269.228 126.61 264.828 126.61C265.488 119.203 266.038 110.55 266.478 100.65C266.918 90.75 267.284 80.2633 267.578 69.19C264.864 73.7367 262.334 78.43 259.988 83.27C257.641 88.11 255.478 93.0967 253.498 98.23C251.738 98.7433 249.611 99.0367 247.118 99.11C244.698 99.1833 242.351 99 240.078 98.56C237.951 93.7933 235.678 89.1367 233.258 84.59C230.838 79.97 228.271 75.4967 225.558 71.17C225.558 80.0433 226.034 88.8433 226.988 97.57C228.014 106.223 229.371 113.447 231.058 119.24C229.078 119.827 226.071 120.34 222.038 120.78C218.004 121.22 214.264 121.44 210.818 121.44C209.424 111.833 208.251 99.5867 207.298 84.7C206.344 69.74 205.868 56.5767 205.868 45.21C209.021 43.01 212.468 41.14 216.208 39.6C220.021 38.06 223.578 37.07 226.878 36.63C232.158 43.45 236.558 49.6833 240.078 55.33C243.671 60.9767 246.714 66.4767 249.208 71.83C251.994 65.3767 255.038 59.2167 258.338 53.35C261.711 47.41 265.268 41.8733 269.008 36.74C271.941 37.18 274.874 37.84 277.808 38.72C280.741 39.5267 283.528 40.5533 286.168 41.8C286.681 51.8467 287.048 64.0933 287.268 78.54C287.561 92.9867 287.708 107.653 287.708 122.54ZM331.808 40.37C340.608 40.37 347.391 43.2667 352.158 49.06C356.998 54.78 359.418 62.92 359.418 73.48C359.418 79.2 358.648 85.03 357.108 90.97C355.568 96.8367 353.441 102.043 350.728 106.59C347.355 112.017 343.248 116.16 338.408 119.02C333.568 121.807 328.105 123.2 322.018 123.2C313.218 123.2 306.361 119.827 301.448 113.08C296.535 106.26 294.078 97.0567 294.078 85.47C294.078 72.1967 297.561 61.38 304.528 53.02C311.495 44.5867 320.588 40.37 331.808 40.37ZM326.638 108.9C329.938 108.9 332.395 106.627 334.008 102.08C335.621 97.5333 336.428 90.0167 336.428 79.53C336.428 70.51 335.695 64.13 334.228 60.39C332.835 56.5767 330.451 54.67 327.078 54.67C323.705 54.67 321.101 57.09 319.268 61.93C317.508 66.77 316.628 73.59 316.628 82.39C316.628 90.75 317.471 97.2767 319.158 101.97C320.918 106.59 323.411 108.9 326.638 108.9ZM433.494 116.16C431.22 118.507 428.434 120.597 425.134 122.43C421.834 124.263 418.02 125.803 413.694 127.05C409 115.977 405.444 108.13 403.024 103.51C400.677 98.8167 398.184 94.5267 395.544 90.64C394.884 90.7867 394.37 90.9333 394.004 91.08C393.71 91.1533 393.417 91.2633 393.124 91.41C392.977 96.69 392.757 101.86 392.464 106.92C392.17 111.907 391.804 116.857 391.364 121.77C388.064 121.77 384.727 121.623 381.354 121.33C377.98 121.11 375.01 120.78 372.444 120.34C372.517 116.893 372.554 114.327 372.554 112.64C372.627 110.953 372.664 109.377 372.664 107.91C372.664 98.5967 372.334 88.88 371.674 78.76C371.087 68.64 370.134 57.64 368.814 45.76C372.26 42.8267 376.44 40.5167 381.354 38.83C386.34 37.1433 391.254 36.3 396.094 36.3C405.7 36.3 413.107 38.3533 418.314 42.46C423.52 46.5667 426.124 52.3233 426.124 59.73C426.124 64.2033 424.95 68.3833 422.604 72.27C420.257 76.1567 416.774 79.64 412.154 82.72C416.04 87.1933 419.707 92.1433 423.154 97.57C426.674 102.997 430.12 109.193 433.494 116.16ZM393.344 77.66V78.1C396.79 76.78 399.357 74.7633 401.044 72.05C402.73 69.3367 403.574 65.89 403.574 61.71C403.574 57.6033 402.657 54.4133 400.824 52.14C399.064 49.8667 396.497 48.73 393.124 48.73H392.684C392.904 55.9167 393.05 61.6367 393.124 65.89C393.27 70.07 393.344 73.9933 393.344 77.66ZM491.122 122.1C488.995 122.76 482.175 123.53 470.662 124.41C459.222 125.29 449.652 125.73 441.952 125.73C440.118 114.07 438.432 100.467 436.892 84.92C435.425 69.3733 434.618 56.43 434.472 46.09C445.765 43.9633 455.555 42.46 463.842 41.58C472.202 40.6267 480.378 40.15 488.372 40.15C488.372 42.8633 488.188 45.76 487.822 48.84C487.528 51.8467 487.015 55 486.282 58.3C482.175 58.3 477.922 58.3733 473.522 58.52C469.122 58.6667 464.538 58.8867 459.772 59.18C459.625 60.7933 459.515 62.6633 459.442 64.79C459.368 66.8433 459.295 69.96 459.222 74.14C462.962 73.04 466.702 72.2333 470.442 71.72C474.182 71.2067 477.995 70.95 481.882 70.95C482.468 73.5167 482.908 76.1567 483.202 78.87C483.495 81.5833 483.642 84.7733 483.642 88.44C479.462 88.44 475.318 88.5867 471.212 88.88C467.105 89.1 463.108 89.43 459.222 89.87C459.295 93.17 459.405 96.3967 459.552 99.55C459.698 102.703 459.918 105.71 460.212 108.57C462.338 108.57 466.812 108.167 473.632 107.36C480.452 106.48 485.585 105.71 489.032 105.05C489.618 106.59 490.095 109.12 490.462 112.64C490.902 116.087 491.122 119.24 491.122 122.1Z" fill="black"/>
<path d="M268.307 140.166C269.396 131.643 264.5 134 265 130.302V121.424C274.142 113 287.566 120.133 288.5 122.5C289.434 124.867 287.952 126.553 286.98 126.948C285.812 126.159 286.007 138.193 281.339 137.404C276.671 136.615 279.394 130.302 276.281 131.091C273.792 131.722 273.04 136.089 272.975 138.193C272.91 138.851 273.053 140.797 274.142 143.323C275.231 145.848 274.077 147.137 273.364 147.466C271.224 148.584 267.217 148.689 268.307 140.166Z" fill="#FFB601" stroke="#FFB601"/>
<path d="M83.7337 63.2459C84.6121 52.8758 78.5836 51.7454 75.4596 52.4766L74.0665 41.9806C89.2828 39.328 120.283 34.6595 122.554 37.2064C124.825 39.7532 121.559 41.8481 119.643 42.5771C117.145 41.9593 119.429 56.1346 109.81 56.462C100.19 56.7894 104.739 48.5904 98.5318 50.3636C93.5664 51.7822 92.7217 57.1477 92.92 59.6531C92.8913 60.4481 93.4869 62.7109 96.0989 65.4024C98.7109 68.0938 96.5656 69.9292 95.1664 70.5105C90.9896 72.4099 82.8554 73.6161 83.7337 63.2459Z" fill="url(#paint0_linear_1_49)" stroke="#FFB601"/>
<path d="M302.837 64.6222C303.312 59.6014 299.47 58.6681 297.49 58.829C294.718 60.0627 290.362 60.5026 295.114 52.3922C301.055 42.2542 305.367 30.2571 326.399 29.0378C341.5 28.1623 356.628 42.737 360.258 48.3692C361.908 50.7294 364.535 55.7072 361.842 56.737C358.476 58.0244 363.624 61.4037 361.05 63.9785C358.99 66.0383 357.816 63.8712 357.486 62.5302C358.41 59.8482 358.872 54.452 353.328 54.3232C347.783 54.1945 349.301 60.0627 350.754 63.0129C351.744 63.9248 353.526 66.4245 352.734 69.1279C351.942 71.8314 348.971 72.0781 347.585 71.8636C345.671 71.4344 342.239 69.7394 343.823 66.3923C345.803 62.2083 346.397 56.2543 343.427 56.0934C340.457 55.9324 340.655 57.3807 339.071 60.7601C337.487 64.1394 337.487 65.9095 333.923 66.3923C330.359 66.875 333.527 58.5072 328.577 61.4037C324.617 63.721 325.475 66.7678 326.399 68.0015C327.917 69.6107 329.923 73.1831 325.805 74.5992C320.657 76.3693 319.667 71.8636 320.657 69.1279C321.647 66.3923 321.251 61.4037 318.479 60.7601C315.707 60.1164 315.509 62.3693 313.727 63.0129C312.5 63.4559 311.674 63.2955 311.3 63.1055C311.445 63.2849 311.317 63.1727 311.153 63.0129C311.19 63.0429 311.239 63.0746 311.3 63.1055C311.152 62.9234 310.724 62.4412 309.767 61.4037C307.866 59.344 307.259 61.6183 307.193 63.0129C306.929 62.9593 306.678 63.6566 307.787 66.875C308.895 70.0934 306.929 70.898 305.807 70.898C304.619 70.898 302.361 69.6429 302.837 64.6222Z" fill="url(#paint1_linear_1_49)" stroke="#FFB601"/>
<defs>
<linearGradient id="paint0_linear_1_49" x1="98.4098" y1="38.2399" x2="102.647" y2="70.1604" gradientUnits="userSpaceOnUse">
<stop stop-color="#FFB601"/>
<stop offset="1" stop-color="#EDB220"/>
</linearGradient>
<linearGradient id="paint1_linear_1_49" x1="328" y1="29" x2="328" y2="75" gradientUnits="userSpaceOnUse">
<stop stop-color="#FFB601"/>
<stop offset="0.72321" stop-color="#F2B318"/>
<stop offset="1" stop-color="#EDB220"/>
</linearGradient>
</defs>
</svg>
